ISO-10303-21;
HEADER;
/* Generated by software containing ST-Developer
 * from STEP Tools, Inc. (www.steptools.com) 
 */

FILE_DESCRIPTION(
/* description */ (''),
/* implementation_level */ '2;1');

FILE_NAME(
/* name */ 'PT-1340P-P10-PQ.step',
/* time_stamp */ '2026-08-25T17:21:59+02:00',
/* author */ (''),
/* organization */ (''),
/* preprocessor_version */ 'ST-DEVELOPER v20.1',
/* originating_system */ 'Autodesk Translation Framework v15.8.0.0',
/* authorisation */ '');

FILE_SCHEMA (('AUTOMOTIVE_DESIGN { 1 0 10303 214 3 1 1 }'));
ENDSEC;

DATA;
#10=MECHANICAL_DESIGN_GEOMETRIC_PRESENTATION_REPRESENTATION('',(#17,#18,
#19,#20),#591);
#11=SHAPE_REPRESENTATION_RELATIONSHIP('SRR','None',#598,#12);
#12=ADVANCED_BREP_SHAPE_REPRESENTATION('',(#13,#14,#15),#590);
#13=MANIFOLD_SOLID_BREP('Body1',#319);
#14=MANIFOLD_SOLID_BREP('Body2',#320);
#15=MANIFOLD_SOLID_BREP('Body3',#321);
#16=TOROIDAL_SURFACE('',#368,6.75,0.5);
#17=STYLED_ITEM('',(#609),#308);
#18=STYLED_ITEM('',(#608),#13);
#19=STYLED_ITEM('',(#607),#14);
#20=STYLED_ITEM('',(#607),#15);
#21=FACE_BOUND('',#74,.T.);
#22=FACE_BOUND('',#76,.T.);
#23=FACE_BOUND('',#77,.T.);
#24=FACE_BOUND('',#78,.T.);
#25=FACE_BOUND('',#79,.T.);
#26=FACE_BOUND('',#83,.T.);
#27=FACE_BOUND('',#89,.T.);
#28=FACE_BOUND('',#95,.T.);
#29=PLANE('',#338);
#30=PLANE('',#345);
#31=PLANE('',#346);
#32=PLANE('',#355);
#33=PLANE('',#356);
#34=PLANE('',#359);
#35=PLANE('',#363);
#36=PLANE('',#367);
#37=PLANE('',#374);
#38=PLANE('',#375);
#39=PLANE('',#379);
#40=PLANE('',#380);
#41=PLANE('',#384);
#42=PLANE('',#385);
#43=FACE_OUTER_BOUND('',#69,.T.);
#44=FACE_OUTER_BOUND('',#70,.T.);
#45=FACE_OUTER_BOUND('',#71,.T.);
#46=FACE_OUTER_BOUND('',#72,.T.);
#47=FACE_OUTER_BOUND('',#73,.T.);
#48=FACE_OUTER_BOUND('',#75,.T.);
#49=FACE_OUTER_BOUND('',#80,.T.);
#50=FACE_OUTER_BOUND('',#81,.T.);
#51=FACE_OUTER_BOUND('',#82,.T.);
#52=FACE_OUTER_BOUND('',#84,.T.);
#53=FACE_OUTER_BOUND('',#85,.T.);
#54=FACE_OUTER_BOUND('',#86,.T.);
#55=FACE_OUTER_BOUND('',#87,.T.);
#56=FACE_OUTER_BOUND('',#88,.T.);
#57=FACE_OUTER_BOUND('',#90,.T.);
#58=FACE_OUTER_BOUND('',#91,.T.);
#59=FACE_OUTER_BOUND('',#92,.T.);
#60=FACE_OUTER_BOUND('',#93,.T.);
#61=FACE_OUTER_BOUND('',#94,.T.);
#62=FACE_OUTER_BOUND('',#96,.T.);
#63=FACE_OUTER_BOUND('',#97,.T.);
#64=FACE_OUTER_BOUND('',#98,.T.);
#65=FACE_OUTER_BOUND('',#99,.T.);
#66=FACE_OUTER_BOUND('',#100,.T.);
#67=FACE_OUTER_BOUND('',#101,.T.);
#68=FACE_OUTER_BOUND('',#102,.T.);
#69=EDGE_LOOP('',(#210,#211,#212,#213));
#70=EDGE_LOOP('',(#214));
#71=EDGE_LOOP('',(#215,#216,#217,#218));
#72=EDGE_LOOP('',(#219,#220,#221,#222));
#73=EDGE_LOOP('',(#223));
#74=EDGE_LOOP('',(#224));
#75=EDGE_LOOP('',(#225));
#76=EDGE_LOOP('',(#226));
#77=EDGE_LOOP('',(#227));
#78=EDGE_LOOP('',(#228));
#79=EDGE_LOOP('',(#229));
#80=EDGE_LOOP('',(#230,#231,#232,#233));
#81=EDGE_LOOP('',(#234,#235,#236,#237));
#82=EDGE_LOOP('',(#238));
#83=EDGE_LOOP('',(#239));
#84=EDGE_LOOP('',(#240));
#85=EDGE_LOOP('',(#241,#242,#243,#244));
#86=EDGE_LOOP('',(#245));
#87=EDGE_LOOP('',(#246,#247,#248,#249));
#88=EDGE_LOOP('',(#250));
#89=EDGE_LOOP('',(#251));
#90=EDGE_LOOP('',(#252,#253,#254,#255));
#91=EDGE_LOOP('',(#256));
#92=EDGE_LOOP('',(#257,#258,#259,#260,#261));
#93=EDGE_LOOP('',(#262,#263,#264,#265,#266));
#94=EDGE_LOOP('',(#267));
#95=EDGE_LOOP('',(#268));
#96=EDGE_LOOP('',(#269));
#97=EDGE_LOOP('',(#270,#271,#272,#273));
#98=EDGE_LOOP('',(#274));
#99=EDGE_LOOP('',(#275));
#100=EDGE_LOOP('',(#276,#277,#278,#279));
#101=EDGE_LOOP('',(#280));
#102=EDGE_LOOP('',(#281));
#103=LINE('',#506,#114);
#104=LINE('',#513,#115);
#105=LINE('',#519,#116);
#106=LINE('',#533,#117);
#107=LINE('',#538,#118);
#108=LINE('',#544,#119);
#109=LINE('',#550,#120);
#110=LINE('',#558,#121);
#111=LINE('',#569,#122);
#112=LINE('',#576,#123);
#113=LINE('',#584,#124);
#114=VECTOR('',#392,0.5);
#115=VECTOR('',#401,0.4);
#116=VECTOR('',#408,1.8);
#117=VECTOR('',#425,0.4);
#118=VECTOR('',#432,1.8);
#119=VECTOR('',#441,0.5);
#120=VECTOR('',#448,4.);
#121=VECTOR('',#459,1.7);
#122=VECTOR('',#474,7.25);
#123=VECTOR('',#483,0.4);
#124=VECTOR('',#494,0.4);
#125=CIRCLE('',#336,0.5);
#126=CIRCLE('',#337,0.5);
#127=CIRCLE('',#340,0.4);
#128=CIRCLE('',#341,0.4);
#129=CIRCLE('',#343,1.8);
#130=CIRCLE('',#344,1.8);
#131=CIRCLE('',#347,7.25);
#132=CIRCLE('',#348,1.8);
#133=CIRCLE('',#349,0.5);
#134=CIRCLE('',#351,0.4);
#135=CIRCLE('',#352,0.4);
#136=CIRCLE('',#354,1.8);
#137=CIRCLE('',#358,0.5);
#138=CIRCLE('',#361,4.);
#139=CIRCLE('',#362,4.);
#140=CIRCLE('',#364,1.7);
#141=CIRCLE('',#366,1.7);
#142=CIRCLE('',#369,6.75);
#143=CIRCLE('',#370,0.5);
#144=CIRCLE('',#371,7.25);
#145=CIRCLE('',#372,7.25);
#146=CIRCLE('',#377,0.4);
#147=CIRCLE('',#378,0.4);
#148=CIRCLE('',#382,0.4);
#149=CIRCLE('',#383,0.4);
#150=VERTEX_POINT('',#503);
#151=VERTEX_POINT('',#505);
#152=VERTEX_POINT('',#510);
#153=VERTEX_POINT('',#512);
#154=VERTEX_POINT('',#516);
#155=VERTEX_POINT('',#518);
#156=VERTEX_POINT('',#523);
#157=VERTEX_POINT('',#525);
#158=VERTEX_POINT('',#527);
#159=VERTEX_POINT('',#530);
#160=VERTEX_POINT('',#532);
#161=VERTEX_POINT('',#536);
#162=VERTEX_POINT('',#542);
#163=VERTEX_POINT('',#547);
#164=VERTEX_POINT('',#549);
#165=VERTEX_POINT('',#553);
#166=VERTEX_POINT('',#556);
#167=VERTEX_POINT('',#561);
#168=VERTEX_POINT('',#563);
#169=VERTEX_POINT('',#565);
#170=VERTEX_POINT('',#573);
#171=VERTEX_POINT('',#575);
#172=VERTEX_POINT('',#581);
#173=VERTEX_POINT('',#583);
#174=EDGE_CURVE('',#150,#150,#125,.T.);
#175=EDGE_CURVE('',#150,#151,#103,.T.);
#176=EDGE_CURVE('',#151,#151,#126,.T.);
#177=EDGE_CURVE('',#152,#152,#127,.T.);
#178=EDGE_CURVE('',#152,#153,#104,.T.);
#179=EDGE_CURVE('',#153,#153,#128,.T.);
#180=EDGE_CURVE('',#154,#154,#129,.T.);
#181=EDGE_CURVE('',#154,#155,#105,.T.);
#182=EDGE_CURVE('',#155,#155,#130,.T.);
#183=EDGE_CURVE('',#156,#156,#131,.T.);
#184=EDGE_CURVE('',#157,#157,#132,.T.);
#185=EDGE_CURVE('',#158,#158,#133,.T.);
#186=EDGE_CURVE('',#159,#159,#134,.T.);
#187=EDGE_CURVE('',#159,#160,#106,.T.);
#188=EDGE_CURVE('',#160,#160,#135,.T.);
#189=EDGE_CURVE('',#161,#161,#136,.T.);
#190=EDGE_CURVE('',#161,#157,#107,.T.);
#191=EDGE_CURVE('',#162,#162,#137,.T.);
#192=EDGE_CURVE('',#162,#158,#108,.T.);
#193=EDGE_CURVE('',#163,#163,#138,.T.);
#194=EDGE_CURVE('',#163,#164,#109,.T.);
#195=EDGE_CURVE('',#164,#164,#139,.T.);
#196=EDGE_CURVE('',#165,#165,#140,.T.);
#197=EDGE_CURVE('',#166,#166,#141,.T.);
#198=EDGE_CURVE('',#166,#165,#110,.T.);
#199=EDGE_CURVE('',#167,#167,#142,.T.);
#200=EDGE_CURVE('',#167,#168,#143,.T.);
#201=EDGE_CURVE('',#168,#169,#144,.T.);
#202=EDGE_CURVE('',#169,#168,#145,.T.);
#203=EDGE_CURVE('',#169,#156,#111,.T.);
#204=EDGE_CURVE('',#170,#170,#146,.T.);
#205=EDGE_CURVE('',#170,#171,#112,.T.);
#206=EDGE_CURVE('',#171,#171,#147,.T.);
#207=EDGE_CURVE('',#172,#172,#148,.T.);
#208=EDGE_CURVE('',#172,#173,#113,.T.);
#209=EDGE_CURVE('',#173,#173,#149,.T.);
#210=ORIENTED_EDGE('',*,*,#174,.F.);
#211=ORIENTED_EDGE('',*,*,#175,.T.);
#212=ORIENTED_EDGE('',*,*,#176,.F.);
#213=ORIENTED_EDGE('',*,*,#175,.F.);
#214=ORIENTED_EDGE('',*,*,#174,.T.);
#215=ORIENTED_EDGE('',*,*,#177,.F.);
#216=ORIENTED_EDGE('',*,*,#178,.T.);
#217=ORIENTED_EDGE('',*,*,#179,.F.);
#218=ORIENTED_EDGE('',*,*,#178,.F.);
#219=ORIENTED_EDGE('',*,*,#180,.F.);
#220=ORIENTED_EDGE('',*,*,#181,.T.);
#221=ORIENTED_EDGE('',*,*,#182,.F.);
#222=ORIENTED_EDGE('',*,*,#181,.F.);
#223=ORIENTED_EDGE('',*,*,#180,.T.);
#224=ORIENTED_EDGE('',*,*,#177,.T.);
#225=ORIENTED_EDGE('',*,*,#183,.F.);
#226=ORIENTED_EDGE('',*,*,#176,.T.);
#227=ORIENTED_EDGE('',*,*,#184,.T.);
#228=ORIENTED_EDGE('',*,*,#185,.T.);
#229=ORIENTED_EDGE('',*,*,#182,.T.);
#230=ORIENTED_EDGE('',*,*,#186,.F.);
#231=ORIENTED_EDGE('',*,*,#187,.T.);
#232=ORIENTED_EDGE('',*,*,#188,.F.);
#233=ORIENTED_EDGE('',*,*,#187,.F.);
#234=ORIENTED_EDGE('',*,*,#189,.F.);
#235=ORIENTED_EDGE('',*,*,#190,.T.);
#236=ORIENTED_EDGE('',*,*,#184,.F.);
#237=ORIENTED_EDGE('',*,*,#190,.F.);
#238=ORIENTED_EDGE('',*,*,#189,.T.);
#239=ORIENTED_EDGE('',*,*,#186,.T.);
#240=ORIENTED_EDGE('',*,*,#179,.T.);
#241=ORIENTED_EDGE('',*,*,#191,.F.);
#242=ORIENTED_EDGE('',*,*,#192,.T.);
#243=ORIENTED_EDGE('',*,*,#185,.F.);
#244=ORIENTED_EDGE('',*,*,#192,.F.);
#245=ORIENTED_EDGE('',*,*,#191,.T.);
#246=ORIENTED_EDGE('',*,*,#193,.F.);
#247=ORIENTED_EDGE('',*,*,#194,.T.);
#248=ORIENTED_EDGE('',*,*,#195,.T.);
#249=ORIENTED_EDGE('',*,*,#194,.F.);
#250=ORIENTED_EDGE('',*,*,#195,.F.);
#251=ORIENTED_EDGE('',*,*,#196,.F.);
#252=ORIENTED_EDGE('',*,*,#197,.F.);
#253=ORIENTED_EDGE('',*,*,#198,.T.);
#254=ORIENTED_EDGE('',*,*,#196,.T.);
#255=ORIENTED_EDGE('',*,*,#198,.F.);
#256=ORIENTED_EDGE('',*,*,#193,.T.);
#257=ORIENTED_EDGE('',*,*,#199,.T.);
#258=ORIENTED_EDGE('',*,*,#200,.T.);
#259=ORIENTED_EDGE('',*,*,#201,.T.);
#260=ORIENTED_EDGE('',*,*,#202,.T.);
#261=ORIENTED_EDGE('',*,*,#200,.F.);
#262=ORIENTED_EDGE('',*,*,#202,.F.);
#263=ORIENTED_EDGE('',*,*,#203,.T.);
#264=ORIENTED_EDGE('',*,*,#183,.T.);
#265=ORIENTED_EDGE('',*,*,#203,.F.);
#266=ORIENTED_EDGE('',*,*,#201,.F.);
#267=ORIENTED_EDGE('',*,*,#199,.F.);
#268=ORIENTED_EDGE('',*,*,#197,.T.);
#269=ORIENTED_EDGE('',*,*,#188,.T.);
#270=ORIENTED_EDGE('',*,*,#204,.F.);
#271=ORIENTED_EDGE('',*,*,#205,.T.);
#272=ORIENTED_EDGE('',*,*,#206,.T.);
#273=ORIENTED_EDGE('',*,*,#205,.F.);
#274=ORIENTED_EDGE('',*,*,#204,.T.);
#275=ORIENTED_EDGE('',*,*,#206,.F.);
#276=ORIENTED_EDGE('',*,*,#207,.F.);
#277=ORIENTED_EDGE('',*,*,#208,.T.);
#278=ORIENTED_EDGE('',*,*,#209,.T.);
#279=ORIENTED_EDGE('',*,*,#208,.F.);
#280=ORIENTED_EDGE('',*,*,#207,.T.);
#281=ORIENTED_EDGE('',*,*,#209,.F.);
#282=CYLINDRICAL_SURFACE('',#335,0.5);
#283=CYLINDRICAL_SURFACE('',#339,0.4);
#284=CYLINDRICAL_SURFACE('',#342,1.8);
#285=CYLINDRICAL_SURFACE('',#350,0.4);
#286=CYLINDRICAL_SURFACE('',#353,1.8);
#287=CYLINDRICAL_SURFACE('',#357,0.5);
#288=CYLINDRICAL_SURFACE('',#360,4.);
#289=CYLINDRICAL_SURFACE('',#365,1.7);
#290=CYLINDRICAL_SURFACE('',#373,7.25);
#291=CYLINDRICAL_SURFACE('',#376,0.4);
#292=CYLINDRICAL_SURFACE('',#381,0.4);
#293=ADVANCED_FACE('',(#43),#282,.T.);
#294=ADVANCED_FACE('',(#44),#29,.F.);
#295=ADVANCED_FACE('',(#45),#283,.F.);
#296=ADVANCED_FACE('',(#46),#284,.T.);
#297=ADVANCED_FACE('',(#47,#21),#30,.F.);
#298=ADVANCED_FACE('',(#48,#22,#23,#24,#25),#31,.F.);
#299=ADVANCED_FACE('',(#49),#285,.F.);
#300=ADVANCED_FACE('',(#50),#286,.T.);
#301=ADVANCED_FACE('',(#51,#26),#32,.F.);
#302=ADVANCED_FACE('',(#52),#33,.F.);
#303=ADVANCED_FACE('',(#53),#287,.T.);
#304=ADVANCED_FACE('',(#54),#34,.F.);
#305=ADVANCED_FACE('',(#55),#288,.F.);
#306=ADVANCED_FACE('',(#56,#27),#35,.F.);
#307=ADVANCED_FACE('',(#57),#289,.F.);
#308=ADVANCED_FACE('',(#58),#36,.T.);
#309=ADVANCED_FACE('',(#59),#16,.T.);
#310=ADVANCED_FACE('',(#60),#290,.T.);
#311=ADVANCED_FACE('',(#61,#28),#37,.T.);
#312=ADVANCED_FACE('',(#62),#38,.F.);
#313=ADVANCED_FACE('',(#63),#291,.T.);
#314=ADVANCED_FACE('',(#64),#39,.F.);
#315=ADVANCED_FACE('',(#65),#40,.T.);
#316=ADVANCED_FACE('',(#66),#292,.T.);
#317=ADVANCED_FACE('',(#67),#41,.F.);
#318=ADVANCED_FACE('',(#68),#42,.T.);
#319=CLOSED_SHELL('',(#293,#294,#295,#296,#297,#298,#299,#300,#301,#302,
#303,#304,#305,#306,#307,#308,#309,#310,#311,#312));
#320=CLOSED_SHELL('',(#313,#314,#315));
#321=CLOSED_SHELL('',(#316,#317,#318));
#322=DERIVED_UNIT_ELEMENT(#324,1.);
#323=DERIVED_UNIT_ELEMENT(#593,-3.);
#324=(
MASS_UNIT()
NAMED_UNIT(*)
SI_UNIT(.KILO.,.GRAM.)
);
#325=DERIVED_UNIT((#322,#323));
#326=MEASURE_REPRESENTATION_ITEM('density measure',
POSITIVE_RATIO_MEASURE(7850.),#325);
#327=PROPERTY_DEFINITION_REPRESENTATION(#332,#329);
#328=PROPERTY_DEFINITION_REPRESENTATION(#333,#330);
#329=REPRESENTATION('material name',(#331),#590);
#330=REPRESENTATION('density',(#326),#590);
#331=DESCRIPTIVE_REPRESENTATION_ITEM('Steel','Steel');
#332=PROPERTY_DEFINITION('material property','material name',#600);
#333=PROPERTY_DEFINITION('material property','density of part',#600);
#334=AXIS2_PLACEMENT_3D('',#501,#386,#387);
#335=AXIS2_PLACEMENT_3D('',#502,#388,#389);
#336=AXIS2_PLACEMENT_3D('',#504,#390,#391);
#337=AXIS2_PLACEMENT_3D('',#507,#393,#394);
#338=AXIS2_PLACEMENT_3D('',#508,#395,#396);
#339=AXIS2_PLACEMENT_3D('',#509,#397,#398);
#340=AXIS2_PLACEMENT_3D('',#511,#399,#400);
#341=AXIS2_PLACEMENT_3D('',#514,#402,#403);
#342=AXIS2_PLACEMENT_3D('',#515,#404,#405);
#343=AXIS2_PLACEMENT_3D('',#517,#406,#407);
#344=AXIS2_PLACEMENT_3D('',#520,#409,#410);
#345=AXIS2_PLACEMENT_3D('',#521,#411,#412);
#346=AXIS2_PLACEMENT_3D('',#522,#413,#414);
#347=AXIS2_PLACEMENT_3D('',#524,#415,#416);
#348=AXIS2_PLACEMENT_3D('',#526,#417,#418);
#349=AXIS2_PLACEMENT_3D('',#528,#419,#420);
#350=AXIS2_PLACEMENT_3D('',#529,#421,#422);
#351=AXIS2_PLACEMENT_3D('',#531,#423,#424);
#352=AXIS2_PLACEMENT_3D('',#534,#426,#427);
#353=AXIS2_PLACEMENT_3D('',#535,#428,#429);
#354=AXIS2_PLACEMENT_3D('',#537,#430,#431);
#355=AXIS2_PLACEMENT_3D('',#539,#433,#434);
#356=AXIS2_PLACEMENT_3D('',#540,#435,#436);
#357=AXIS2_PLACEMENT_3D('',#541,#437,#438);
#358=AXIS2_PLACEMENT_3D('',#543,#439,#440);
#359=AXIS2_PLACEMENT_3D('',#545,#442,#443);
#360=AXIS2_PLACEMENT_3D('',#546,#444,#445);
#361=AXIS2_PLACEMENT_3D('',#548,#446,#447);
#362=AXIS2_PLACEMENT_3D('',#551,#449,#450);
#363=AXIS2_PLACEMENT_3D('',#552,#451,#452);
#364=AXIS2_PLACEMENT_3D('',#554,#453,#454);
#365=AXIS2_PLACEMENT_3D('',#555,#455,#456);
#366=AXIS2_PLACEMENT_3D('',#557,#457,#458);
#367=AXIS2_PLACEMENT_3D('',#559,#460,#461);
#368=AXIS2_PLACEMENT_3D('',#560,#462,#463);
#369=AXIS2_PLACEMENT_3D('',#562,#464,#465);
#370=AXIS2_PLACEMENT_3D('',#564,#466,#467);
#371=AXIS2_PLACEMENT_3D('',#566,#468,#469);
#372=AXIS2_PLACEMENT_3D('',#567,#470,#471);
#373=AXIS2_PLACEMENT_3D('',#568,#472,#473);
#374=AXIS2_PLACEMENT_3D('',#570,#475,#476);
#375=AXIS2_PLACEMENT_3D('',#571,#477,#478);
#376=AXIS2_PLACEMENT_3D('',#572,#479,#480);
#377=AXIS2_PLACEMENT_3D('',#574,#481,#482);
#378=AXIS2_PLACEMENT_3D('',#577,#484,#485);
#379=AXIS2_PLACEMENT_3D('',#578,#486,#487);
#380=AXIS2_PLACEMENT_3D('',#579,#488,#489);
#381=AXIS2_PLACEMENT_3D('',#580,#490,#491);
#382=AXIS2_PLACEMENT_3D('',#582,#492,#493);
#383=AXIS2_PLACEMENT_3D('',#585,#495,#496);
#384=AXIS2_PLACEMENT_3D('',#586,#497,#498);
#385=AXIS2_PLACEMENT_3D('',#587,#499,#500);
#386=DIRECTION('axis',(0.,0.,1.));
#387=DIRECTION('refdir',(1.,0.,0.));
#388=DIRECTION('center_axis',(0.,-1.,0.));
#389=DIRECTION('ref_axis',(1.,0.,0.));
#390=DIRECTION('center_axis',(0.,-1.,0.));
#391=DIRECTION('ref_axis',(1.,0.,0.));
#392=DIRECTION('',(0.,1.,0.));
#393=DIRECTION('center_axis',(0.,1.,0.));
#394=DIRECTION('ref_axis',(1.,0.,0.));
#395=DIRECTION('center_axis',(0.,1.,0.));
#396=DIRECTION('ref_axis',(1.,0.,0.));
#397=DIRECTION('center_axis',(0.,-1.,0.));
#398=DIRECTION('ref_axis',(1.,0.,0.));
#399=DIRECTION('center_axis',(0.,1.,0.));
#400=DIRECTION('ref_axis',(1.,0.,0.));
#401=DIRECTION('',(0.,1.,0.));
#402=DIRECTION('center_axis',(0.,-1.,0.));
#403=DIRECTION('ref_axis',(1.,0.,0.));
#404=DIRECTION('center_axis',(0.,-1.,0.));
#405=DIRECTION('ref_axis',(1.,0.,0.));
#406=DIRECTION('center_axis',(0.,-1.,0.));
#407=DIRECTION('ref_axis',(1.,0.,0.));
#408=DIRECTION('',(0.,1.,0.));
#409=DIRECTION('center_axis',(0.,1.,0.));
#410=DIRECTION('ref_axis',(1.,0.,0.));
#411=DIRECTION('center_axis',(0.,1.,0.));
#412=DIRECTION('ref_axis',(1.,0.,0.));
#413=DIRECTION('center_axis',(0.,1.,0.));
#414=DIRECTION('ref_axis',(1.,0.,0.));
#415=DIRECTION('center_axis',(0.,1.,0.));
#416=DIRECTION('ref_axis',(1.,0.,0.));
#417=DIRECTION('center_axis',(0.,1.,0.));
#418=DIRECTION('ref_axis',(1.,0.,0.));
#419=DIRECTION('center_axis',(0.,1.,0.));
#420=DIRECTION('ref_axis',(1.,0.,0.));
#421=DIRECTION('center_axis',(0.,-1.,0.));
#422=DIRECTION('ref_axis',(1.,0.,0.));
#423=DIRECTION('center_axis',(0.,1.,0.));
#424=DIRECTION('ref_axis',(1.,0.,0.));
#425=DIRECTION('',(0.,1.,0.));
#426=DIRECTION('center_axis',(0.,-1.,0.));
#427=DIRECTION('ref_axis',(1.,0.,0.));
#428=DIRECTION('center_axis',(0.,-1.,0.));
#429=DIRECTION('ref_axis',(1.,0.,0.));
#430=DIRECTION('center_axis',(0.,-1.,0.));
#431=DIRECTION('ref_axis',(1.,0.,0.));
#432=DIRECTION('',(0.,1.,0.));
#433=DIRECTION('center_axis',(0.,1.,0.));
#434=DIRECTION('ref_axis',(1.,0.,0.));
#435=DIRECTION('center_axis',(0.,1.,0.));
#436=DIRECTION('ref_axis',(1.,0.,0.));
#437=DIRECTION('center_axis',(0.,-1.,0.));
#438=DIRECTION('ref_axis',(1.,0.,0.));
#439=DIRECTION('center_axis',(0.,-1.,0.));
#440=DIRECTION('ref_axis',(1.,0.,0.));
#441=DIRECTION('',(0.,1.,0.));
#442=DIRECTION('center_axis',(0.,1.,0.));
#443=DIRECTION('ref_axis',(1.,0.,0.));
#444=DIRECTION('center_axis',(0.,1.,0.));
#445=DIRECTION('ref_axis',(-1.,0.,0.));
#446=DIRECTION('center_axis',(0.,1.,0.));
#447=DIRECTION('ref_axis',(-1.,0.,0.));
#448=DIRECTION('',(0.,1.,0.));
#449=DIRECTION('center_axis',(0.,1.,0.));
#450=DIRECTION('ref_axis',(-1.,0.,0.));
#451=DIRECTION('center_axis',(0.,1.,0.));
#452=DIRECTION('ref_axis',(-1.,0.,0.));
#453=DIRECTION('center_axis',(0.,-1.,0.));
#454=DIRECTION('ref_axis',(-1.,0.,0.));
#455=DIRECTION('center_axis',(0.,-1.,0.));
#456=DIRECTION('ref_axis',(-1.,0.,0.));
#457=DIRECTION('center_axis',(0.,-1.,0.));
#458=DIRECTION('ref_axis',(-1.,0.,0.));
#459=DIRECTION('',(0.,-1.,0.));
#460=DIRECTION('center_axis',(0.,1.,0.));
#461=DIRECTION('ref_axis',(-1.,0.,0.));
#462=DIRECTION('center_axis',(0.,1.,0.));
#463=DIRECTION('ref_axis',(0.,0.,1.));
#464=DIRECTION('center_axis',(0.,-1.,0.));
#465=DIRECTION('ref_axis',(1.,0.,0.));
#466=DIRECTION('center_axis',(-1.,0.,1.22464679914735E-16));
#467=DIRECTION('ref_axis',(-1.22464679914735E-16,0.,-1.));
#468=DIRECTION('center_axis',(0.,1.,0.));
#469=DIRECTION('ref_axis',(1.,0.,0.));
#470=DIRECTION('center_axis',(0.,1.,0.));
#471=DIRECTION('ref_axis',(1.,0.,0.));
#472=DIRECTION('center_axis',(0.,1.,0.));
#473=DIRECTION('ref_axis',(1.,0.,0.));
#474=DIRECTION('',(0.,-1.,0.));
#475=DIRECTION('center_axis',(0.,1.,0.));
#476=DIRECTION('ref_axis',(1.,0.,0.));
#477=DIRECTION('center_axis',(0.,1.,0.));
#478=DIRECTION('ref_axis',(1.,0.,0.));
#479=DIRECTION('center_axis',(0.,-1.,0.));
#480=DIRECTION('ref_axis',(1.,0.,0.));
#481=DIRECTION('center_axis',(0.,-1.,0.));
#482=DIRECTION('ref_axis',(1.,0.,0.));
#483=DIRECTION('',(0.,1.,0.));
#484=DIRECTION('center_axis',(0.,-1.,0.));
#485=DIRECTION('ref_axis',(1.,0.,0.));
#486=DIRECTION('center_axis',(0.,1.,0.));
#487=DIRECTION('ref_axis',(1.,0.,0.));
#488=DIRECTION('center_axis',(0.,1.,0.));
#489=DIRECTION('ref_axis',(1.,0.,0.));
#490=DIRECTION('center_axis',(0.,-1.,0.));
#491=DIRECTION('ref_axis',(1.,0.,0.));
#492=DIRECTION('center_axis',(0.,-1.,0.));
#493=DIRECTION('ref_axis',(1.,0.,0.));
#494=DIRECTION('',(0.,1.,0.));
#495=DIRECTION('center_axis',(0.,-1.,0.));
#496=DIRECTION('ref_axis',(1.,0.,0.));
#497=DIRECTION('center_axis',(0.,1.,0.));
#498=DIRECTION('ref_axis',(1.,0.,0.));
#499=DIRECTION('center_axis',(0.,1.,0.));
#500=DIRECTION('ref_axis',(1.,0.,0.));
#501=CARTESIAN_POINT('',(0.,0.,0.));
#502=CARTESIAN_POINT('Origin',(0.,0.,-5.));
#503=CARTESIAN_POINT('',(-0.5,-0.6,-5.));
#504=CARTESIAN_POINT('Origin',(0.,-0.6,-5.));
#505=CARTESIAN_POINT('',(-0.5,0.,-5.));
#506=CARTESIAN_POINT('',(-0.5,0.,-5.));
#507=CARTESIAN_POINT('Origin',(0.,0.,-5.));
#508=CARTESIAN_POINT('Origin',(0.,-0.6,-5.));
#509=CARTESIAN_POINT('Origin',(-5.,0.,0.));
#510=CARTESIAN_POINT('',(-5.4,-0.6,4.89858719658942E-17));
#511=CARTESIAN_POINT('Origin',(-5.,-0.6,0.));
#512=CARTESIAN_POINT('',(-5.4,0.,4.89858719658942E-17));
#513=CARTESIAN_POINT('',(-5.4,0.,-4.89858719658942E-17));
#514=CARTESIAN_POINT('Origin',(-5.,0.,0.));
#515=CARTESIAN_POINT('Origin',(-5.,0.,0.));
#516=CARTESIAN_POINT('',(-6.8,-0.6,2.20436423846524E-16));
#517=CARTESIAN_POINT('Origin',(-5.,-0.6,0.));
#518=CARTESIAN_POINT('',(-6.8,0.,2.20436423846524E-16));
#519=CARTESIAN_POINT('',(-6.8,0.,-2.20436423846524E-16));
#520=CARTESIAN_POINT('Origin',(-5.,0.,0.));
#521=CARTESIAN_POINT('Origin',(-5.,-0.6,0.));
#522=CARTESIAN_POINT('Origin',(0.,0.,0.));
#523=CARTESIAN_POINT('',(-7.25,0.,8.87868929381831E-16));
#524=CARTESIAN_POINT('Origin',(0.,0.,0.));
#525=CARTESIAN_POINT('',(3.2,0.,2.20436423846524E-16));
#526=CARTESIAN_POINT('Origin',(5.,0.,0.));
#527=CARTESIAN_POINT('',(-0.5,0.,5.));
#528=CARTESIAN_POINT('Origin',(0.,0.,5.));
#529=CARTESIAN_POINT('Origin',(5.,0.,0.));
#530=CARTESIAN_POINT('',(4.6,-0.6,4.89858719658942E-17));
#531=CARTESIAN_POINT('Origin',(5.,-0.6,0.));
#532=CARTESIAN_POINT('',(4.6,0.,4.89858719658942E-17));
#533=CARTESIAN_POINT('',(4.6,0.,-4.89858719658942E-17));
#534=CARTESIAN_POINT('Origin',(5.,0.,0.));
#535=CARTESIAN_POINT('Origin',(5.,0.,0.));
#536=CARTESIAN_POINT('',(3.2,-0.6,2.20436423846524E-16));
#537=CARTESIAN_POINT('Origin',(5.,-0.6,0.));
#538=CARTESIAN_POINT('',(3.2,0.,-2.20436423846524E-16));
#539=CARTESIAN_POINT('Origin',(5.,-0.6,0.));
#540=CARTESIAN_POINT('Origin',(0.,0.,0.));
#541=CARTESIAN_POINT('Origin',(0.,0.,5.));
#542=CARTESIAN_POINT('',(-0.5,-0.6,5.));
#543=CARTESIAN_POINT('Origin',(0.,-0.6,5.));
#544=CARTESIAN_POINT('',(-0.5,0.,5.));
#545=CARTESIAN_POINT('Origin',(0.,-0.6,5.));
#546=CARTESIAN_POINT('Origin',(0.,3.8,0.));
#547=CARTESIAN_POINT('',(4.,3.8,-4.89858719658941E-16));
#548=CARTESIAN_POINT('Origin',(0.,3.8,0.));
#549=CARTESIAN_POINT('',(4.,6.8,-4.89858719658941E-16));
#550=CARTESIAN_POINT('',(4.,3.8,-4.89858719658941E-16));
#551=CARTESIAN_POINT('Origin',(0.,6.8,0.));
#552=CARTESIAN_POINT('Origin',(0.,6.8,0.));
#553=CARTESIAN_POINT('',(1.7,6.8,-2.0818995585505E-16));
#554=CARTESIAN_POINT('Origin',(0.,6.8,0.));
#555=CARTESIAN_POINT('Origin',(0.,8.2,0.));
#556=CARTESIAN_POINT('',(1.7,8.2,-2.0818995585505E-16));
#557=CARTESIAN_POINT('Origin',(0.,8.2,0.));
#558=CARTESIAN_POINT('',(1.7,8.2,2.0818995585505E-16));
#559=CARTESIAN_POINT('Origin',(0.,3.8,0.));
#560=CARTESIAN_POINT('Origin',(0.,7.7,0.));
#561=CARTESIAN_POINT('',(-8.26636589424463E-16,8.2,-6.75));
#562=CARTESIAN_POINT('Origin',(0.,8.2,0.));
#563=CARTESIAN_POINT('',(-8.87868929381831E-16,7.7,-7.25));
#564=CARTESIAN_POINT('Origin',(-8.26636589424463E-16,7.7,-6.75));
#565=CARTESIAN_POINT('',(-7.25,7.7,8.87868929381831E-16));
#566=CARTESIAN_POINT('Origin',(0.,7.7,0.));
#567=CARTESIAN_POINT('Origin',(0.,7.7,0.));
#568=CARTESIAN_POINT('Origin',(0.,0.,0.));
#569=CARTESIAN_POINT('',(-7.25,0.,8.87868929381831E-16));
#570=CARTESIAN_POINT('Origin',(0.,8.2,0.));
#571=CARTESIAN_POINT('Origin',(0.,0.,0.));
#572=CARTESIAN_POINT('Origin',(-5.,0.,0.));
#573=CARTESIAN_POINT('',(-5.4,-4.3,4.89858719658942E-17));
#574=CARTESIAN_POINT('Origin',(-5.,-4.3,0.));
#575=CARTESIAN_POINT('',(-5.4,0.,4.89858719658942E-17));
#576=CARTESIAN_POINT('',(-5.4,0.,-4.89858719658942E-17));
#577=CARTESIAN_POINT('Origin',(-5.,0.,0.));
#578=CARTESIAN_POINT('Origin',(0.,-4.3,0.));
#579=CARTESIAN_POINT('Origin',(0.,0.,0.));
#580=CARTESIAN_POINT('Origin',(5.,0.,0.));
#581=CARTESIAN_POINT('',(4.6,-4.3,4.89858719658942E-17));
#582=CARTESIAN_POINT('Origin',(5.,-4.3,0.));
#583=CARTESIAN_POINT('',(4.6,0.,4.89858719658942E-17));
#584=CARTESIAN_POINT('',(4.6,0.,-4.89858719658942E-17));
#585=CARTESIAN_POINT('Origin',(5.,0.,0.));
#586=CARTESIAN_POINT('Origin',(0.,-4.3,0.));
#587=CARTESIAN_POINT('Origin',(0.,0.,0.));
#588=UNCERTAINTY_MEASURE_WITH_UNIT(LENGTH_MEASURE(0.01),#592,
'DISTANCE_ACCURACY_VALUE',
'Maximum model space distance between geometric entities at asserted c
onnectivities');
#589=UNCERTAINTY_MEASURE_WITH_UNIT(LENGTH_MEASURE(0.01),#592,
'DISTANCE_ACCURACY_VALUE',
'Maximum model space distance between geometric entities at asserted c
onnectivities');
#590=(
GEOMETRIC_REPRESENTATION_CONTEXT(3)
GLOBAL_UNCERTAINTY_ASSIGNED_CONTEXT((#588))
GLOBAL_UNIT_ASSIGNED_CONTEXT((#592,#594,#595))
REPRESENTATION_CONTEXT('','3D')
);
#591=(
GEOMETRIC_REPRESENTATION_CONTEXT(3)
GLOBAL_UNCERTAINTY_ASSIGNED_CONTEXT((#589))
GLOBAL_UNIT_ASSIGNED_CONTEXT((#592,#594,#595))
REPRESENTATION_CONTEXT('','3D')
);
#592=(
LENGTH_UNIT()
NAMED_UNIT(*)
SI_UNIT(.MILLI.,.METRE.)
);
#593=(
LENGTH_UNIT()
NAMED_UNIT(*)
SI_UNIT($,.METRE.)
);
#594=(
NAMED_UNIT(*)
PLANE_ANGLE_UNIT()
SI_UNIT($,.RADIAN.)
);
#595=(
NAMED_UNIT(*)
SI_UNIT($,.STERADIAN.)
SOLID_ANGLE_UNIT()
);
#596=SHAPE_DEFINITION_REPRESENTATION(#597,#598);
#597=PRODUCT_DEFINITION_SHAPE('',$,#600);
#598=SHAPE_REPRESENTATION('',(#334),#590);
#599=PRODUCT_DEFINITION_CONTEXT('part definition',#604,'design');
#600=PRODUCT_DEFINITION('2026-08-25-17-02-07-070','PT-1340P-P10-PQ',#601,
#599);
#601=PRODUCT_DEFINITION_FORMATION('',$,#606);
#602=PRODUCT_RELATED_PRODUCT_CATEGORY('PT-1340P-P10-PQ',
'PT-1340P-P10-PQ',(#606));
#603=APPLICATION_PROTOCOL_DEFINITION('international standard',
'automotive_design',2009,#604);
#604=APPLICATION_CONTEXT(
'Core Data for Automotive Mechanical Design Process');
#605=PRODUCT_CONTEXT('part definition',#604,'mechanical');
#606=PRODUCT('2026-08-25-17-02-07-070','PT-1340P-P10-PQ',$,(#605));
#607=PRESENTATION_STYLE_ASSIGNMENT((#610));
#608=PRESENTATION_STYLE_ASSIGNMENT((#611));
#609=PRESENTATION_STYLE_ASSIGNMENT((#612));
#610=SURFACE_STYLE_USAGE(.BOTH.,#613);
#611=SURFACE_STYLE_USAGE(.BOTH.,#614);
#612=SURFACE_STYLE_USAGE(.BOTH.,#615);
#613=SURFACE_SIDE_STYLE('',(#616));
#614=SURFACE_SIDE_STYLE('',(#617));
#615=SURFACE_SIDE_STYLE('',(#618));
#616=SURFACE_STYLE_FILL_AREA(#619);
#617=SURFACE_STYLE_FILL_AREA(#620);
#618=SURFACE_STYLE_FILL_AREA(#621);
#619=FILL_AREA_STYLE('Steel - Satin',(#622));
#620=FILL_AREA_STYLE('Nylon 12 (with Formlabs Fuse 1 3D Printer)',(#623));
#621=FILL_AREA_STYLE('Gold - Polished',(#624));
#622=FILL_AREA_STYLE_COLOUR('Steel - Satin',#625);
#623=FILL_AREA_STYLE_COLOUR(
'Nylon 12 (with Formlabs Fuse 1 3D Printer)',#626);
#624=FILL_AREA_STYLE_COLOUR('Gold - Polished',#627);
#625=COLOUR_RGB('Steel - Satin',0.627450980392157,0.627450980392157,0.627450980392157);
#626=COLOUR_RGB('Nylon 12 (with Formlabs Fuse 1 3D Printer)',0.247058823529412,
0.247058823529412,0.247058823529412);
#627=COLOUR_RGB('Gold - Polished',0.956862745098039,0.898039215686275,0.654901960784314);
ENDSEC;
END-ISO-10303-21;
